<svg aria-hidden="true" style="position: absolute; width: 0; height: 0; overflow: hidden;" version="1.1" xmlns="http://www.w3.org/2000/svg" xmlns:xlink="http://www.w3.org/1999/xlink">
<defs>
<symbol id="facebook" viewBox="0 0 32 32">
<path d="M18.478 32v-14.596h4.897l0.735-5.69h-5.632v-3.632c0-1.647 0.455-2.769 2.82-2.769l3.010-0.001v-5.089c-0.521-0.068-2.308-0.223-4.388-0.223-4.343 0-7.317 2.651-7.317 7.519v4.196h-4.912v5.69h4.912v14.596h5.874z"></path>
</symbol>
<symbol id="instagram" viewBox="0 0 32 32">
<path d="M31.969 9.408c-0.075-1.7-0.35-2.869-0.744-3.882-0.406-1.075-1.031-2.038-1.85-2.838-0.8-0.813-1.769-1.444-2.832-1.844-1.019-0.394-2.182-0.669-3.882-0.744-1.713-0.081-2.257-0.1-6.601-0.1s-4.888 0.019-6.595 0.094c-1.7 0.075-2.869 0.35-3.882 0.744-1.075 0.406-2.038 1.031-2.838 1.85-0.813 0.8-1.444 1.769-1.844 2.832-0.394 1.019-0.669 2.182-0.744 3.882-0.081 1.713-0.1 2.257-0.1 6.601s0.019 4.888 0.094 6.595c0.075 1.7 0.35 2.869 0.744 3.882 0.406 1.075 1.038 2.038 1.85 2.838 0.8 0.813 1.769 1.444 2.832 1.844 1.019 0.394 2.182 0.669 3.882 0.744 1.706 0.075 2.25 0.094 6.595 0.094s4.888-0.019 6.595-0.094c1.7-0.075 2.869-0.35 3.882-0.744 2.151-0.831 3.851-2.532 4.682-4.682 0.394-1.019 0.669-2.182 0.744-3.882 0.075-1.707 0.094-2.25 0.094-6.595s-0.006-4.888-0.081-6.595zM29.087 22.473c-0.069 1.563-0.331 2.407-0.55 2.969-0.538 1.394-1.644 2.5-3.038 3.038-0.563 0.219-1.413 0.481-2.969 0.55-1.688 0.075-2.194 0.094-6.464 0.094s-4.782-0.019-6.464-0.094c-1.563-0.069-2.407-0.331-2.969-0.55-0.694-0.256-1.325-0.663-1.838-1.194-0.531-0.519-0.938-1.144-1.194-1.838-0.219-0.563-0.481-1.413-0.55-2.969-0.075-1.688-0.094-2.194-0.094-6.464s0.019-4.782 0.094-6.464c0.069-1.563 0.331-2.407 0.55-2.969 0.256-0.694 0.663-1.325 1.2-1.838 0.519-0.531 1.144-0.938 1.838-1.194 0.563-0.219 1.413-0.481 2.969-0.55 1.688-0.075 2.194-0.094 6.464-0.094 4.276 0 4.782 0.019 6.464 0.094 1.563 0.069 2.407 0.331 2.969 0.55 0.694 0.256 1.325 0.662 1.838 1.194 0.531 0.519 0.938 1.144 1.194 1.838 0.219 0.563 0.481 1.413 0.55 2.969 0.075 1.688 0.094 2.194 0.094 6.464s-0.019 4.77-0.094 6.458z"></path>
<path d="M16.059 7.783c-4.538 0-8.22 3.682-8.22 8.22s3.682 8.22 8.22 8.22c4.538 0 8.22-3.682 8.22-8.22s-3.682-8.22-8.22-8.22zM16.059 21.335c-2.944 0-5.332-2.388-5.332-5.332s2.388-5.332 5.332-5.332c2.944 0 5.332 2.388 5.332 5.332s-2.388 5.332-5.332 5.332z"></path>
<path d="M26.524 7.458c0 1.060-0.859 1.919-1.919 1.919s-1.919-0.859-1.919-1.919c0-1.060 0.859-1.919 1.919-1.919s1.919 0.859 1.919 1.919z"></path>
</symbol>
<symbol id="twitter" viewBox="0 0 32 32">
<path d="M11.938 29.128c-1.384 0-2.808-0.112-4.241-0.337-2.524-0.396-5.078-1.716-5.801-2.111l-1.896-1.037 2.053-0.675c2.244-0.738 3.609-1.196 5.299-1.912-1.692-0.819-2.996-2.293-3.624-4.198l-0.478-1.45 0.392 0.060c-0.371-0.374-0.665-0.754-0.892-1.1-0.808-1.228-1.236-2.728-1.145-4.014l0.090-1.265 0.758 0.293c-0.32-0.604-0.551-1.248-0.686-1.924-0.331-1.647-0.054-3.398 0.78-4.928l0.66-1.211 0.883 1.060c2.791 3.353 6.327 5.342 10.523 5.924-0.171-1.181-0.043-2.322 0.382-3.344 0.495-1.19 1.375-2.199 2.545-2.918 1.299-0.799 2.875-1.186 4.437-1.090 1.657 0.102 3.161 0.723 4.356 1.797 0.584-0.152 1.013-0.313 1.594-0.532 0.35-0.132 0.746-0.281 1.242-0.452l1.828-0.63-1.192 3.405c0.079-0.007 0.16-0.012 0.244-0.016l1.952-0.088-1.154 1.577c-0.066 0.090-0.083 0.116-0.106 0.151-0.093 0.14-0.209 0.314-1.792 2.429-0.396 0.53-0.594 1.219-0.558 1.942 0.14 2.748-0.197 5.234-1.003 7.39-0.762 2.039-1.943 3.789-3.51 5.2-1.939 1.746-4.411 2.942-7.349 3.553-1.441 0.3-2.988 0.45-4.59 0.45z"></path>
</symbol>
<symbol id="whatsapp" viewBox="0 0 32 32">
<path d="M23.343 19.076l-0.012 0.1c-2.932-1.461-3.239-1.656-3.617-1.088-0.263 0.393-1.028 1.285-1.259 1.549-0.233 0.26-0.465 0.28-0.861 0.1-0.4-0.2-1.684-0.62-3.204-1.98-1.184-1.060-1.979-2.36-2.213-2.76-0.391-0.675 0.427-0.771 1.171-2.179 0.133-0.28 0.065-0.5-0.033-0.699-0.1-0.2-0.896-2.16-1.229-2.941-0.32-0.779-0.649-0.68-0.896-0.68-0.768-0.067-1.329-0.056-1.824 0.459-2.152 2.365-1.609 4.805 0.232 7.4 3.619 4.736 5.547 5.608 9.072 6.819 0.952 0.303 1.82 0.26 2.507 0.161 0.765-0.121 2.356-0.961 2.688-1.901 0.34-0.94 0.34-1.72 0.24-1.9-0.099-0.18-0.36-0.28-0.76-0.46z"></path>
<path d="M27.36 4.599c-10.252-9.911-27.219-2.723-27.225 11.259 0 2.795 0.732 5.52 2.127 7.927l-2.261 8.216 8.447-2.203c10.54 5.693 23.548-1.867 23.553-13.932 0-4.235-1.653-8.22-4.66-11.215zM29.336 15.821c-0.008 10.177-11.18 16.533-20.016 11.339l-0.48-0.285-5 1.3 1.34-4.86-0.319-0.5c-5.499-8.753 0.819-20.193 11.235-20.193 3.539 0 6.86 1.38 9.361 3.88 2.5 2.479 3.879 5.8 3.879 9.32z"></path>
</symbol>
</defs>
</svg>
